<?xml version="1.0" encoding="UTF-8" standalone="no"?>
<!-- Created with Inkscape (http://www.inkscape.org/) -->

<svg
   xmlns:dc="http://purl.org/dc/elements/1.1/"
   xmlns:cc="http://creativecommons.org/ns#"
   xmlns:rdf="http://www.w3.org/1999/02/22-rdf-syntax-ns#"
   xmlns:svg="http://www.w3.org/2000/svg"
   xmlns="http://www.w3.org/2000/svg"
   xmlns:sodipodi="http://sodipodi.sourceforge.net/DTD/sodipodi-0.dtd"
   xmlns:inkscape="http://www.inkscape.org/namespaces/inkscape"
   width="175.74588"
   height="83.088516"
   id="svg4009"
   version="1.1"
   inkscape:version="0.48.2 r9819"
   sodipodi:docname="fredbot support.svg">
  <defs
     id="defs4011">
    <style
       id="style6"
       type="text/css">
   
    .str1 {stroke:red;stroke-width:0.003}
    .str0 {stroke:red;stroke-width:0.000893701;stroke-linecap:round}
    .fil0 {fill:none}
    .fil1 {fill:none;fill-rule:nonzero}
   
  </style>
  </defs>
  <sodipodi:namedview
     id="base"
     pagecolor="#ffffff"
     bordercolor="#666666"
     borderopacity="1.0"
     inkscape:pageopacity="0.0"
     inkscape:pageshadow="2"
     inkscape:zoom="3.1051854"
     inkscape:cx="87.872938"
     inkscape:cy="41.544257"
     inkscape:document-units="px"
     inkscape:current-layer="layer1"
     showgrid="false"
     fit-margin-top="0.1"
     fit-margin-left="0.1"
     fit-margin-right="0.1"
     fit-margin-bottom="0.1"
     inkscape:window-width="940"
     inkscape:window-height="424"
     inkscape:window-x="737"
     inkscape:window-y="567"
     inkscape:window-maximized="0"
     units="cm" />
  <metadata
     id="metadata4014">
    <rdf:RDF>
      <cc:Work
         rdf:about="">
        <dc:format>image/svg+xml</dc:format>
        <dc:type
           rdf:resource="http://purl.org/dc/dcmitype/StillImage" />
        <dc:title />
      </cc:Work>
    </rdf:RDF>
  </metadata>
  <g
     inkscape:label="Layer 1"
     inkscape:groupmode="layer"
     id="layer1"
     transform="translate(-55.182521,-472.31787)">
    <g
       id="g3001">
      <path
         style="fill:none;stroke:#ff0000;stroke-width:0.080433;stroke-linecap:round"
         inkscape:connector-curvature="0"
         d="m 61.130011,476.00893 c 1.29713,0 161.676099,3.5e-4 161.676099,3.5e-4 l 2.17515,-3.5e-4 c 1.29725,0 2.34133,2.83752 2.34133,6.36093 l 0,23.06907 c 0,3.52557 -1.04428,6.36165 -2.34133,6.36165 l -163.851502,-0.001 c -1.297017,0 -2.34143,-2.835 -2.34143,-6.35985 l 0,-23.07015 c 0,-3.52422 1.044385,-6.36021 2.34143,-6.36021 l 0,-3.5e-4 z"
         class="fil0 str0"
         id="_132656912" />
      <polyline
         transform="matrix(-90,0,0,90,332.48431,472.4309)"
         class="fil1 str1"
         points="2.04935,0.0396142 2.04935,0.210945 2.16018,0.210945 2.16018,0.0396142 "
         id="polyline17"
         style="fill:none;stroke:#0000ff;stroke-width:0.003;stroke-opacity:1" />
      <g
         transform="translate(5.092792,0)"
         id="g2997">
        <polyline
           style="fill:none;stroke:#0000ff;stroke-width:0.003;stroke-opacity:1"
           points="3.9114,0.0396142 3.9114,0.210945 4.02224,0.210945 4.02224,0.0396142 "
           class="fil1 str1"
           id="_132651584"
           transform="matrix(-90,0,0,90,553.24658,472.4309)" />
        <polyline
           class="fil1 str1"
           points="0.187291,0.0396142 0.187291,0.210945 0.298126,0.210945 0.298126,0.0396142 "
           id="polyline3956"
           style="fill:none;stroke:#0000ff;stroke-width:0.003;stroke-opacity:1"
           transform="matrix(90,0,0,90,57.848564,472.4309)" />
      </g>
    </g>
    <g
       id="g3027">
      <path
         id="path3010"
         class="fil0 str0"
         d="m 124.34,516.00893 c 0.80377,0 100.18392,3.5e-4 100.18392,3.5e-4 l 1.34785,-3.5e-4 c 0.80385,0 1.45082,2.83752 1.45082,6.36093 l 0,23.06907 c 0,3.52557 -0.6471,6.36165 -1.45082,6.36165 l -101.53193,-10e-4 c -0.80371,0 -1.45089,-2.835 -1.45089,-6.35985 l 0,-23.07015 c 0,-3.52422 0.64716,-6.36021 1.45089,-6.36021 l 0,-3.5e-4 z"
         inkscape:connector-curvature="0"
         style="fill:none;stroke:#ff0000;stroke-width:0.08043301;stroke-linecap:round" />
      <polyline
         style="fill:none;stroke:#0000ff;stroke-width:0.003;stroke-opacity:1"
         id="polyline3012"
         points="2.04935,0.0396142 2.04935,0.210945 2.16018,0.210945 2.16018,0.0396142 "
         class="fil1 str1"
         transform="matrix(-90,0,0,90,332.48431,512.4309)" />
      <polyline
         style="fill:none;stroke:#0000ff;stroke-width:0.003;stroke-opacity:1"
         points="3.9114,0.0396142 3.9114,0.210945 4.02224,0.210945 4.02224,0.0396142 "
         class="fil1 str1"
         id="polyline3016"
         transform="matrix(-90,0,0,90,558.33937,512.4309)" />
    </g>
  </g>
</svg>
