<?xml version="1.0" encoding="UTF-8" standalone="no"?>
<!-- Created with Inkscape (http://www.inkscape.org/) -->

<svg
   xmlns:osb="http://www.openswatchbook.org/uri/2009/osb"
   xmlns:dc="http://purl.org/dc/elements/1.1/"
   xmlns:cc="http://creativecommons.org/ns#"
   xmlns:rdf="http://www.w3.org/1999/02/22-rdf-syntax-ns#"
   xmlns:svg="http://www.w3.org/2000/svg"
   xmlns="http://www.w3.org/2000/svg"
   xmlns:sodipodi="http://sodipodi.sourceforge.net/DTD/sodipodi-0.dtd"
   xmlns:inkscape="http://www.inkscape.org/namespaces/inkscape"
   width="481.88187"
   height="209.02411"
   id="svg2"
   version="1.0"
   inkscape:version="0.48.2 r9819"
   sodipodi:docname="panel1.svg"
   sodipodi:version="0.32"
   inkscape:output_extension="org.inkscape.output.svg.inkscape">
  <defs
     id="defs4">
    <inkscape:perspective
       sodipodi:type="inkscape:persp3d"
       inkscape:vp_x="0 : 186.22786 : 1"
       inkscape:vp_y="0 : 1000 : 0"
       inkscape:vp_z="372.45575 : 186.22786 : 1"
       inkscape:persp3d-origin="186.22787 : 124.15191 : 1"
       id="perspective36" />
    <clipPath
       id="clipPath50428"
       clipPathUnits="userSpaceOnUse">
      <path
         id="path50430"
         d="m 18,18 756,0 0,576 -756,0 0,-576 z"
         inkscape:connector-curvature="0" />
    </clipPath>
    <clipPath
       id="clipPath50420"
       clipPathUnits="userSpaceOnUse">
      <path
         id="path50422"
         d="m 36,36 500,0 0,540 -500,0 0,-540 z"
         inkscape:connector-curvature="0" />
    </clipPath>
    <clipPath
       id="clipPath3088"
       clipPathUnits="userSpaceOnUse">
      <path
         id="path3090"
         d="m 18,18 756,0 0,576 -756,0 0,-576 z"
         inkscape:connector-curvature="0" />
    </clipPath>
    <linearGradient
       id="linearGradient4088"
       osb:paint="solid">
      <stop
         style="stop-color:#0000fc;stop-opacity:1;"
         offset="0"
         id="stop4090" />
    </linearGradient>
    <linearGradient
       osb:paint="solid"
       id="linearGradient2724">
      <stop
         id="stop2726"
         offset="0"
         style="stop-color:#0000fc;stop-opacity:1;" />
    </linearGradient>
    <clipPath
       clipPathUnits="userSpaceOnUse"
       id="clipPath2720">
      <path
         inkscape:connector-curvature="0"
         d="m 18,18 756,0 0,576 -756,0 0,-576 z"
         id="path2722" />
    </clipPath>
    <clipPath
       clipPathUnits="userSpaceOnUse"
       id="clipPath2716">
      <path
         inkscape:connector-curvature="0"
         d="m 36,36 500,0 0,540 -500,0 0,-540 z"
         id="path2718" />
    </clipPath>
    <clipPath
       clipPathUnits="userSpaceOnUse"
       id="clipPath2712">
      <path
         inkscape:connector-curvature="0"
         d="m 18,18 756,0 0,576 -756,0 0,-576 z"
         id="path2714" />
    </clipPath>
    <inkscape:perspective
       id="perspective112"
       inkscape:persp3d-origin="186.22787 : 124.15191 : 1"
       inkscape:vp_z="372.45575 : 186.22786 : 1"
       inkscape:vp_y="0 : 1000 : 0"
       inkscape:vp_x="0 : 186.22786 : 1"
       sodipodi:type="inkscape:persp3d" />
    <linearGradient
       osb:paint="solid"
       id="linearGradient4067">
      <stop
         id="stop4069"
         offset="0"
         style="stop-color:#0000fc;stop-opacity:1;" />
    </linearGradient>
    <clipPath
       clipPathUnits="userSpaceOnUse"
       id="clipPath4063">
      <path
         inkscape:connector-curvature="0"
         d="m 18,18 756,0 0,576 -756,0 0,-576 z"
         id="path4065" />
    </clipPath>
    <clipPath
       clipPathUnits="userSpaceOnUse"
       id="clipPath4059">
      <path
         inkscape:connector-curvature="0"
         d="m 36,36 500,0 0,540 -500,0 0,-540 z"
         id="path4061" />
    </clipPath>
    <clipPath
       clipPathUnits="userSpaceOnUse"
       id="clipPath4055">
      <path
         inkscape:connector-curvature="0"
         d="m 18,18 756,0 0,576 -756,0 0,-576 z"
         id="path4057" />
    </clipPath>
    <inkscape:perspective
       id="perspective4053"
       inkscape:persp3d-origin="186.22787 : 124.15191 : 1"
       inkscape:vp_z="372.45575 : 186.22786 : 1"
       inkscape:vp_y="0 : 1000 : 0"
       inkscape:vp_x="0 : 186.22786 : 1"
       sodipodi:type="inkscape:persp3d" />
    <linearGradient
       osb:paint="solid"
       id="linearGradient4088-9">
      <stop
         id="stop4090-9"
         offset="0"
         style="stop-color:#0000fc;stop-opacity:1;" />
    </linearGradient>
    <clipPath
       clipPathUnits="userSpaceOnUse"
       id="clipPath3088-2">
      <path
         inkscape:connector-curvature="0"
         d="m 18,18 756,0 0,576 -756,0 0,-576 z"
         id="path3090-3" />
    </clipPath>
    <clipPath
       clipPathUnits="userSpaceOnUse"
       id="clipPath50420-9">
      <path
         inkscape:connector-curvature="0"
         d="m 36,36 500,0 0,540 -500,0 0,-540 z"
         id="path50422-0" />
    </clipPath>
    <clipPath
       clipPathUnits="userSpaceOnUse"
       id="clipPath50428-3">
      <path
         inkscape:connector-curvature="0"
         d="m 18,18 756,0 0,576 -756,0 0,-576 z"
         id="path50430-7" />
    </clipPath>
    <inkscape:perspective
       id="perspective112-7"
       inkscape:persp3d-origin="186.22787 : 124.15191 : 1"
       inkscape:vp_z="372.45575 : 186.22786 : 1"
       inkscape:vp_y="0 : 1000 : 0"
       inkscape:vp_x="0 : 186.22786 : 1"
       sodipodi:type="inkscape:persp3d" />
    <inkscape:perspective
       sodipodi:type="inkscape:persp3d"
       inkscape:vp_x="0 : 186.22786 : 1"
       inkscape:vp_y="0 : 1000 : 0"
       inkscape:vp_z="372.45575 : 186.22786 : 1"
       inkscape:persp3d-origin="186.22787 : 124.15191 : 1"
       id="perspective112-72" />
    <clipPath
       id="clipPath50428-2"
       clipPathUnits="userSpaceOnUse">
      <path
         id="path50430-3"
         d="m 18,18 756,0 0,576 -756,0 0,-576 z"
         inkscape:connector-curvature="0" />
    </clipPath>
    <clipPath
       id="clipPath50420-5"
       clipPathUnits="userSpaceOnUse">
      <path
         id="path50422-1"
         d="m 36,36 500,0 0,540 -500,0 0,-540 z"
         inkscape:connector-curvature="0" />
    </clipPath>
    <clipPath
       id="clipPath3088-5"
       clipPathUnits="userSpaceOnUse">
      <path
         id="path3090-04"
         d="m 18,18 756,0 0,576 -756,0 0,-576 z"
         inkscape:connector-curvature="0" />
    </clipPath>
    <linearGradient
       id="linearGradient4088-7"
       osb:paint="solid">
      <stop
         style="stop-color:#0000fc;stop-opacity:1;"
         offset="0"
         id="stop4090-6" />
    </linearGradient>
    <inkscape:perspective
       sodipodi:type="inkscape:persp3d"
       inkscape:vp_x="0 : 186.22786 : 1"
       inkscape:vp_y="0 : 1000 : 0"
       inkscape:vp_z="372.45575 : 186.22786 : 1"
       inkscape:persp3d-origin="186.22787 : 124.15191 : 1"
       id="perspective112-7-1" />
    <clipPath
       id="clipPath50428-3-2"
       clipPathUnits="userSpaceOnUse">
      <path
         id="path50430-7-6"
         d="m 18,18 756,0 0,576 -756,0 0,-576 z"
         inkscape:connector-curvature="0" />
    </clipPath>
    <clipPath
       id="clipPath50420-9-7"
       clipPathUnits="userSpaceOnUse">
      <path
         id="path50422-0-1"
         d="m 36,36 500,0 0,540 -500,0 0,-540 z"
         inkscape:connector-curvature="0" />
    </clipPath>
    <clipPath
       id="clipPath3088-2-8"
       clipPathUnits="userSpaceOnUse">
      <path
         id="path3090-3-3"
         d="m 18,18 756,0 0,576 -756,0 0,-576 z"
         inkscape:connector-curvature="0" />
    </clipPath>
    <linearGradient
       id="linearGradient4088-9-9"
       osb:paint="solid">
      <stop
         style="stop-color:#0000fc;stop-opacity:1;"
         offset="0"
         id="stop4090-9-9" />
    </linearGradient>
    <inkscape:perspective
       sodipodi:type="inkscape:persp3d"
       inkscape:vp_x="0 : 186.22786 : 1"
       inkscape:vp_y="0 : 1000 : 0"
       inkscape:vp_z="372.45575 : 186.22786 : 1"
       inkscape:persp3d-origin="186.22787 : 124.15191 : 1"
       id="perspective4053-2" />
    <clipPath
       id="clipPath4055-6"
       clipPathUnits="userSpaceOnUse">
      <path
         id="path4057-8"
         d="m 18,18 756,0 0,576 -756,0 0,-576 z"
         inkscape:connector-curvature="0" />
    </clipPath>
    <clipPath
       id="clipPath4059-9"
       clipPathUnits="userSpaceOnUse">
      <path
         id="path4061-7"
         d="m 36,36 500,0 0,540 -500,0 0,-540 z"
         inkscape:connector-curvature="0" />
    </clipPath>
    <clipPath
       id="clipPath4063-7"
       clipPathUnits="userSpaceOnUse">
      <path
         id="path4065-2"
         d="m 18,18 756,0 0,576 -756,0 0,-576 z"
         inkscape:connector-curvature="0" />
    </clipPath>
    <linearGradient
       id="linearGradient4067-09"
       osb:paint="solid">
      <stop
         style="stop-color:#0000fc;stop-opacity:1;"
         offset="0"
         id="stop4069-5" />
    </linearGradient>
    <inkscape:perspective
       sodipodi:type="inkscape:persp3d"
       inkscape:vp_x="0 : 186.22786 : 1"
       inkscape:vp_y="0 : 1000 : 0"
       inkscape:vp_z="372.45575 : 186.22786 : 1"
       inkscape:persp3d-origin="186.22787 : 124.15191 : 1"
       id="perspective112-4" />
    <clipPath
       id="clipPath2712-4"
       clipPathUnits="userSpaceOnUse">
      <path
         id="path2714-77"
         d="m 18,18 756,0 0,576 -756,0 0,-576 z"
         inkscape:connector-curvature="0" />
    </clipPath>
    <clipPath
       id="clipPath2716-2"
       clipPathUnits="userSpaceOnUse">
      <path
         id="path2718-1"
         d="m 36,36 500,0 0,540 -500,0 0,-540 z"
         inkscape:connector-curvature="0" />
    </clipPath>
    <clipPath
       id="clipPath2720-3"
       clipPathUnits="userSpaceOnUse">
      <path
         id="path2722-2"
         d="m 18,18 756,0 0,576 -756,0 0,-576 z"
         inkscape:connector-curvature="0" />
    </clipPath>
    <linearGradient
       id="linearGradient2724-6"
       osb:paint="solid">
      <stop
         style="stop-color:#0000fc;stop-opacity:1;"
         offset="0"
         id="stop2726-0" />
    </linearGradient>
    <linearGradient
       osb:paint="solid"
       id="linearGradient4088-3">
      <stop
         id="stop4090-0"
         offset="0"
         style="stop-color:#0000fc;stop-opacity:1;" />
    </linearGradient>
    <clipPath
       clipPathUnits="userSpaceOnUse"
       id="clipPath3088-7">
      <path
         inkscape:connector-curvature="0"
         d="m 18,18 756,0 0,576 -756,0 0,-576 z"
         id="path3090-34" />
    </clipPath>
    <clipPath
       clipPathUnits="userSpaceOnUse"
       id="clipPath50420-6">
      <path
         inkscape:connector-curvature="0"
         d="m 36,36 500,0 0,540 -500,0 0,-540 z"
         id="path50422-5" />
    </clipPath>
    <clipPath
       clipPathUnits="userSpaceOnUse"
       id="clipPath50428-8">
      <path
         inkscape:connector-curvature="0"
         d="m 18,18 756,0 0,576 -756,0 0,-576 z"
         id="path50430-0" />
    </clipPath>
    <inkscape:perspective
       id="perspective36-14"
       inkscape:persp3d-origin="186.22787 : 124.15191 : 1"
       inkscape:vp_z="372.45575 : 186.22786 : 1"
       inkscape:vp_y="0 : 1000 : 0"
       inkscape:vp_x="0 : 186.22786 : 1"
       sodipodi:type="inkscape:persp3d" />
    <inkscape:perspective
       sodipodi:type="inkscape:persp3d"
       inkscape:vp_x="0 : 186.22786 : 1"
       inkscape:vp_y="0 : 1000 : 0"
       inkscape:vp_z="372.45575 : 186.22786 : 1"
       inkscape:persp3d-origin="186.22787 : 124.15191 : 1"
       id="perspective112-7-7" />
    <clipPath
       id="clipPath50428-3-7"
       clipPathUnits="userSpaceOnUse">
      <path
         id="path50430-7-1"
         d="m 18,18 756,0 0,576 -756,0 0,-576 z"
         inkscape:connector-curvature="0" />
    </clipPath>
    <clipPath
       id="clipPath50420-9-0"
       clipPathUnits="userSpaceOnUse">
      <path
         id="path50422-0-9"
         d="m 36,36 500,0 0,540 -500,0 0,-540 z"
         inkscape:connector-curvature="0" />
    </clipPath>
    <clipPath
       id="clipPath3088-2-1"
       clipPathUnits="userSpaceOnUse">
      <path
         id="path3090-3-0"
         d="m 18,18 756,0 0,576 -756,0 0,-576 z"
         inkscape:connector-curvature="0" />
    </clipPath>
    <linearGradient
       id="linearGradient4088-9-2"
       osb:paint="solid">
      <stop
         style="stop-color:#0000fc;stop-opacity:1;"
         offset="0"
         id="stop4090-9-7" />
    </linearGradient>
    <inkscape:perspective
       sodipodi:type="inkscape:persp3d"
       inkscape:vp_x="0 : 186.22786 : 1"
       inkscape:vp_y="0 : 1000 : 0"
       inkscape:vp_z="372.45575 : 186.22786 : 1"
       inkscape:persp3d-origin="186.22787 : 124.15191 : 1"
       id="perspective4053-3" />
    <clipPath
       id="clipPath4055-0"
       clipPathUnits="userSpaceOnUse">
      <path
         id="path4057-2"
         d="m 18,18 756,0 0,576 -756,0 0,-576 z"
         inkscape:connector-curvature="0" />
    </clipPath>
    <clipPath
       id="clipPath4059-3"
       clipPathUnits="userSpaceOnUse">
      <path
         id="path4061-5"
         d="m 36,36 500,0 0,540 -500,0 0,-540 z"
         inkscape:connector-curvature="0" />
    </clipPath>
    <clipPath
       id="clipPath4063-0"
       clipPathUnits="userSpaceOnUse">
      <path
         id="path4065-3"
         d="m 18,18 756,0 0,576 -756,0 0,-576 z"
         inkscape:connector-curvature="0" />
    </clipPath>
    <linearGradient
       id="linearGradient4067-0"
       osb:paint="solid">
      <stop
         style="stop-color:#0000fc;stop-opacity:1;"
         offset="0"
         id="stop4069-6" />
    </linearGradient>
    <inkscape:perspective
       sodipodi:type="inkscape:persp3d"
       inkscape:vp_x="0 : 186.22786 : 1"
       inkscape:vp_y="0 : 1000 : 0"
       inkscape:vp_z="372.45575 : 186.22786 : 1"
       inkscape:persp3d-origin="186.22787 : 124.15191 : 1"
       id="perspective112-1" />
    <clipPath
       id="clipPath2712-5"
       clipPathUnits="userSpaceOnUse">
      <path
         id="path2714-7"
         d="m 18,18 756,0 0,576 -756,0 0,-576 z"
         inkscape:connector-curvature="0" />
    </clipPath>
    <clipPath
       id="clipPath2716-0"
       clipPathUnits="userSpaceOnUse">
      <path
         id="path2718-4"
         d="m 36,36 500,0 0,540 -500,0 0,-540 z"
         inkscape:connector-curvature="0" />
    </clipPath>
    <clipPath
       id="clipPath2720-7"
       clipPathUnits="userSpaceOnUse">
      <path
         id="path2722-8"
         d="m 18,18 756,0 0,576 -756,0 0,-576 z"
         inkscape:connector-curvature="0" />
    </clipPath>
    <linearGradient
       id="linearGradient2724-3"
       osb:paint="solid">
      <stop
         style="stop-color:#0000fc;stop-opacity:1;"
         offset="0"
         id="stop2726-8" />
    </linearGradient>
    <linearGradient
       osb:paint="solid"
       id="linearGradient4088-5">
      <stop
         id="stop4090-2"
         offset="0"
         style="stop-color:#0000fc;stop-opacity:1;" />
    </linearGradient>
    <clipPath
       clipPathUnits="userSpaceOnUse"
       id="clipPath3088-3">
      <path
         inkscape:connector-curvature="0"
         d="m 18,18 756,0 0,576 -756,0 0,-576 z"
         id="path3090-0" />
    </clipPath>
    <clipPath
       clipPathUnits="userSpaceOnUse"
       id="clipPath50420-4">
      <path
         inkscape:connector-curvature="0"
         d="m 36,36 500,0 0,540 -500,0 0,-540 z"
         id="path50422-9" />
    </clipPath>
    <clipPath
       clipPathUnits="userSpaceOnUse"
       id="clipPath50428-5">
      <path
         inkscape:connector-curvature="0"
         d="m 18,18 756,0 0,576 -756,0 0,-576 z"
         id="path50430-08" />
    </clipPath>
    <inkscape:perspective
       id="perspective36-1"
       inkscape:persp3d-origin="186.22787 : 124.15191 : 1"
       inkscape:vp_z="372.45575 : 186.22786 : 1"
       inkscape:vp_y="0 : 1000 : 0"
       inkscape:vp_x="0 : 186.22786 : 1"
       sodipodi:type="inkscape:persp3d" />
    <inkscape:perspective
       sodipodi:type="inkscape:persp3d"
       inkscape:vp_x="0 : 526.18109 : 1"
       inkscape:vp_y="0 : 1000 : 0"
       inkscape:vp_z="744.09448 : 526.18109 : 1"
       inkscape:persp3d-origin="372.04724 : 350.78739 : 1"
       id="perspective3677" />
    <inkscape:perspective
       id="perspective9"
       inkscape:persp3d-origin="372.04724 : 350.78739 : 1"
       inkscape:vp_z="744.09448 : 526.18109 : 1"
       inkscape:vp_y="0 : 1000 : 0"
       inkscape:vp_x="0 : 526.18109 : 1"
       sodipodi:type="inkscape:persp3d" />
  </defs>
  <sodipodi:namedview
     id="base"
     pagecolor="#ffffff"
     bordercolor="#666666"
     borderopacity="1.0"
     inkscape:pageopacity="0.0"
     inkscape:pageshadow="2"
     inkscape:zoom="1.445992"
     inkscape:cx="240.94093"
     inkscape:cy="104.51205"
     inkscape:document-units="px"
     inkscape:current-layer="layer1"
     showgrid="false"
     fit-margin-top="0.1"
     fit-margin-left="0.1"
     fit-margin-right="0.1"
     fit-margin-bottom="0.1"
     units="cm"
     inkscape:window-width="858"
     inkscape:window-height="480"
     inkscape:window-x="27"
     inkscape:window-y="0"
     inkscape:window-maximized="0" />
  <metadata
     id="metadata7">
    <rdf:RDF>
      <cc:Work
         rdf:about="">
        <dc:format>image/svg+xml</dc:format>
        <dc:type
           rdf:resource="http://purl.org/dc/dcmitype/StillImage" />
        <dc:title />
      </cc:Work>
    </rdf:RDF>
  </metadata>
  <g
     inkscape:label="Layer 1"
     inkscape:groupmode="layer"
     id="layer1"
     transform="translate(-31.121688,-106.93571)">
    <g
       id="g2512"
       transform="translate(-67.843984,12.988976)"
       style="fill:none">
      <path
         id="path50432"
         style="fill:none;stroke:#000000;stroke-width:0.09;stroke-linecap:round;stroke-linejoin:round;stroke-miterlimit:10;stroke-opacity:1;stroke-dasharray:none"
         d="m 146.15096,292.95638 0,-189"
         inkscape:connector-curvature="0" />
      <path
         id="path50434"
         style="fill:none;stroke:#000000;stroke-width:0.09;stroke-linecap:round;stroke-linejoin:round;stroke-miterlimit:10;stroke-opacity:1;stroke-dasharray:none"
         d="m 146.15096,103.95638 229.5,0"
         inkscape:connector-curvature="0" />
      <path
         id="path50436"
         style="fill:none;stroke:#000000;stroke-width:0.09;stroke-linecap:round;stroke-linejoin:round;stroke-miterlimit:10;stroke-opacity:1;stroke-dasharray:none"
         d="m 375.65096,103.95638 4.5,4.5"
         inkscape:connector-curvature="0" />
      <path
         id="path50438"
         style="fill:none;stroke:#000000;stroke-width:0.09;stroke-linecap:round;stroke-linejoin:round;stroke-miterlimit:10;stroke-opacity:1;stroke-dasharray:none"
         d="m 146.15096,292.95638 234,0"
         inkscape:connector-curvature="0" />
      <path
         id="path50442"
         style="fill:none;stroke:#000000;stroke-width:0.09;stroke-linecap:round;stroke-linejoin:round;stroke-miterlimit:10;stroke-opacity:1;stroke-dasharray:none"
         d="m 380.15096,288.45638 9,-9"
         inkscape:connector-curvature="0" />
      <path
         id="path50444"
         style="fill:none;stroke:#000000;stroke-width:0.09;stroke-linecap:round;stroke-linejoin:round;stroke-miterlimit:10;stroke-opacity:1;stroke-dasharray:none"
         d="m 380.15096,108.45638 0,40.5"
         inkscape:connector-curvature="0" />
      <path
         id="path50446"
         style="fill:none;stroke:#000000;stroke-width:0.09;stroke-linecap:round;stroke-linejoin:round;stroke-miterlimit:10;stroke-opacity:1;stroke-dasharray:none"
         d="m 380.15096,148.95638 9,9"
         inkscape:connector-curvature="0" />
      <path
         id="path50450"
         style="fill:none;stroke:#ff0000;stroke-width:0.09;stroke-linecap:round;stroke-linejoin:round;stroke-miterlimit:10;stroke-opacity:1;stroke-dasharray:none"
         d="m 194.52596,112.95638 c 0,3.10661 2.5184,5.625 5.625,5.625 3.1066,0 5.625,-2.51839 5.625,-5.625 0,-3.10659 -2.5184,-5.625 -5.625,-5.625 -3.1066,0 -5.625,2.51841 -5.625,5.625"
         inkscape:connector-curvature="0" />
      <path
         id="path50452"
         style="fill:none;stroke:#ff0000;stroke-width:0.09;stroke-linecap:round;stroke-linejoin:round;stroke-miterlimit:10;stroke-opacity:1;stroke-dasharray:none"
         d="m 374.52596,166.95638 c 0,3.10661 2.5184,5.625 5.625,5.625 3.1066,0 5.625,-2.51839 5.625,-5.625 0,-3.10659 -2.5184,-5.625 -5.625,-5.625 -3.1066,0 -5.625,2.51841 -5.625,5.625"
         inkscape:connector-curvature="0" />
      <path
         id="path50454"
         style="fill:none;stroke:#ff0000;stroke-width:0.09;stroke-linecap:round;stroke-linejoin:round;stroke-miterlimit:10;stroke-opacity:1;stroke-dasharray:none"
         d="m 374.52596,265.95638 c 0,3.10661 2.5184,5.625 5.625,5.625 3.1066,0 5.625,-2.51839 5.625,-5.625 0,-3.10659 -2.5184,-5.625 -5.625,-5.625 -3.1066,0 -5.625,2.51841 -5.625,5.625"
         inkscape:connector-curvature="0" />
      <path
         id="path50456"
         style="fill:none;stroke:#ff0000;stroke-width:0.09;stroke-linecap:round;stroke-linejoin:round;stroke-miterlimit:10;stroke-opacity:1;stroke-dasharray:none"
         d="m 190.02596,283.95638 c 0,3.10661 2.5184,5.625 5.625,5.625 3.1066,0 5.625,-2.51839 5.625,-5.625 0,-3.1066 -2.5184,-5.625 -5.625,-5.625 -3.1066,0 -5.625,2.5184 -5.625,5.625"
         inkscape:connector-curvature="0" />
      <path
         id="path50458"
         style="fill:none;stroke:#000000;stroke-width:0.09;stroke-linecap:round;stroke-linejoin:round;stroke-miterlimit:10;stroke-opacity:1;stroke-dasharray:none"
         d="m 146.15096,281.70638 -6.75,0"
         inkscape:connector-curvature="0" />
      <path
         id="path50460"
         style="fill:none;stroke:#000000;stroke-width:0.09;stroke-linecap:round;stroke-linejoin:round;stroke-miterlimit:10;stroke-opacity:1;stroke-dasharray:none"
         d="m 139.40096,281.70638 0,-31.5"
         inkscape:connector-curvature="0" />
      <path
         id="path50462"
         style="fill:none;stroke:#000000;stroke-width:0.09;stroke-linecap:round;stroke-linejoin:round;stroke-miterlimit:10;stroke-opacity:1;stroke-dasharray:none"
         d="m 139.40096,250.20638 6.75,0"
         inkscape:connector-curvature="0" />
      <path
         id="path50464"
         style="fill:none;stroke:#000000;stroke-width:0.09;stroke-linecap:round;stroke-linejoin:round;stroke-miterlimit:10;stroke-opacity:1;stroke-dasharray:none"
         d="m 146.15096,178.20638 -22.5,0"
         inkscape:connector-curvature="0" />
      <path
         id="path50466"
         style="fill:none;stroke:#000000;stroke-width:0.09;stroke-linecap:round;stroke-linejoin:round;stroke-miterlimit:10;stroke-opacity:1;stroke-dasharray:none"
         d="m 123.65096,178.20638 0,-45"
         inkscape:connector-curvature="0" />
      <path
         id="path50468"
         style="fill:none;stroke:#000000;stroke-width:0.09;stroke-linecap:round;stroke-linejoin:round;stroke-miterlimit:10;stroke-opacity:1;stroke-dasharray:none"
         d="m 123.65096,133.20638 22.5,0"
         inkscape:connector-curvature="0" />
      <path
         id="path50448"
         style="fill:none;stroke:#000000;stroke-width:0.09;stroke-linecap:round;stroke-linejoin:round;stroke-miterlimit:10;stroke-opacity:1;stroke-dasharray:none"
         d="m 389.15096,157.95638 0,121.5"
         inkscape:connector-curvature="0" />
    </g>
    <path
       inkscape:connector-curvature="0"
       id="rect3484"
       d="m 49.362421,110.54151 c -8.113295,0 -14.620934,7.90379 -14.620934,17.71875 l 0,6.1875 0,154 0,6.1875 c 0,9.81496 6.507639,17.71875 14.620934,17.71875 l 257.157949,0 c 4.46357,0 8.45173,-2.40148 11.13361,-6.1875 l 94.80358,0 c 8.11329,0 14.64677,-7.90379 14.64677,-17.71875 l 0,-154 c 0,-9.81496 -6.53348,-17.71875 -14.64677,-17.71875 l -94.80358,0 c -2.68188,-3.78602 -6.67004,-6.1875 -11.13361,-6.1875 l -257.157949,0 z"
       style="fill:none;stroke:#ff0000;stroke-width:0.09000001;stroke-miterlimit:10;stroke-opacity:1;stroke-dasharray:none" />
    <path
       inkscape:connector-curvature="0"
       id="path2532"
       d="m 384.34511,306.16393 0,-21.07677 22.53,0 0,21.05177"
       style="fill:none;stroke:#ff0000;stroke-width:0.09;stroke-linecap:round;stroke-linejoin:round;stroke-miterlimit:10;stroke-opacity:1;stroke-dasharray:none" />
    <path
       inkscape:connector-curvature="0"
       id="path2534-9"
       d="m 34.824995,200.20356 21.097533,-0.1025 0,22.68625 -21.195033,-0.1325"
       style="fill:none;stroke:#ff0000;stroke-width:0.09;stroke-linecap:round;stroke-linejoin:round;stroke-miterlimit:10;stroke-opacity:1;stroke-dasharray:none" />
    <path
       style="fill:none;stroke:#ff0000;stroke-width:0.09;stroke-linecap:round;stroke-linejoin:round;stroke-miterlimit:10;stroke-opacity:1;stroke-dasharray:none"
       d="m 384.34511,116.72443 0,21.07677 22.53,0 0,-21.05177"
       id="path2810-8"
       inkscape:connector-curvature="0" />
  </g>
</svg>
